<?xml version="1.0" encoding="UTF-8"?>
<svg version="1.1" xmlns="http://www.w3.org/2000/svg" width="500" height="500" viewBox="30 140 500 120">
<path d="M0 0 C1.53747267 1.1446497 3.05865313 2.31151789 4.5625 3.5 C5.8309375 4.43972656 5.8309375 4.43972656 7.125 5.3984375 C14.7364429 11.96086743 19.41595173 22.80015881 21.5625 32.5 C22.54074614 51.65104946 22.54074614 51.65104946 18.5625 60.5 C18.17191406 61.38816406 17.78132813 62.27632813 17.37890625 63.19140625 C10.52041534 77.16096706 -0.45450962 84.69917347 -14.8125 89.66796875 C-19.04050465 90.63840516 -22.92817086 90.84454407 -27.25 90.8125 C-28.04607666 90.80686035 -28.84215332 90.8012207 -29.66235352 90.79541016 C-35.68445593 90.67126844 -40.89687234 89.99091466 -46.4375 87.5 C-47.32566406 87.10941406 -48.21382812 86.71882813 -49.12890625 86.31640625 C-60.05563647 80.95182243 -69.1765251 72.08753808 -73.4375 60.5 C-73.1075 59.51 -72.7775 58.52 -72.4375 57.5 C-71.633125 57.726875 -70.82875 57.95375 -70 58.1875 C-65.87871347 58.54901636 -63.37769237 57.67484719 -59.5859375 56.19140625 C-57.4375 55.5 -57.4375 55.5 -53.4375 55.5 C-52.0859375 57.0390625 -52.0859375 57.0390625 -50.8125 59.125 C-47.05927334 64.51547605 -41.73507894 68.09039411 -35.484375 70.140625 C-25.20966953 71.94458092 -16.82540298 70.02285964 -8.1875 64.375 C-0.99818249 56.85889533 1.90959288 49.61388481 1.7734375 39.375 C1.20512247 31.62907669 -1.90354707 24.96506555 -7.4375 19.5 C-16.35599387 13.1098019 -23.50587728 11.66461398 -34.4375 12.5 C-42.30719935 14.43250014 -48.92641393 19.81184233 -53.4375 26.4375 C-53.7675 27.118125 -54.0975 27.79875 -54.4375 28.5 C-55.4275 28.066875 -55.4275 28.066875 -56.4375 27.625 C-62.11161874 25.49720547 -67.32877755 24.19456388 -73.4375 24.5 C-72.88634919 19.92968793 -71.05606432 16.97306361 -68.5 13.1875 C-67.43458984 11.58455078 -67.43458984 11.58455078 -66.34765625 9.94921875 C-65.40212891 8.73685547 -65.40212891 8.73685547 -64.4375 7.5 C-63.7775 7.5 -63.1175 7.5 -62.4375 7.5 C-62.1075 6.51 -61.7775 5.52 -61.4375 4.5 C-44.90225607 -10.70233755 -18.41584928 -12.53787689 0 0 Z " fill="#ffffff" transform="translate(112.4375,158.5)"/>
<path d="M0 0 C6.27 0 12.54 0 19 0 C19 29.04 19 58.08 19 88 C12.73 88 6.46 88 0 88 C-0.33 87.01 -0.66 86.02 -1 85 C-1.58265625 85.3609375 -2.1653125 85.721875 -2.765625 86.09375 C-10.29274822 90.35438579 -17.05400842 91.56959405 -25.515625 89.3359375 C-32.85235088 86.46612976 -38.09126766 81.56286887 -41.4375 74.4375 C-44.15179748 66.72936515 -44.49204776 57.78120412 -41.4375 50.125 C-37.47210965 42.70543687 -32.76682829 37.38645344 -24.6796875 34.62109375 C-16.87832689 32.81290667 -10.1886215 33.60174257 -3 37 C-2.34 37.66 -1.68 38.32 -1 39 C-0.67 26.13 -0.34 13.26 0 0 Z M-21.875 55.75 C-23.56295226 59.12590452 -23.5241091 62.34579488 -23 66 C-21.61351682 69.46620794 -20.37469941 70.7385818 -17.3125 72.875 C-13.19219115 74.27435017 -10.13017254 74.41921567 -6 73 C-3.35766231 70.80742191 -1.53330191 69.06660382 0 66 C0.3768901 61.00620614 0.19468322 57.94010931 -3 54 C-5.81493625 51.73581215 -7.94101705 50.21179659 -11.5 49.5 C-15.79497055 50.35899411 -18.72733519 52.81217951 -21.875 55.75 Z " fill="#ffffff" transform="translate(183,150)"/>
<path d="M0 0 C0.33 -0.66 0.66 -1.32 1 -2 C7.27 -2 13.54 -2 20 -2 C20 15.16 20 32.32 20 50 C14.06 50 8.12 50 2 50 C1.505 48.02 1.505 48.02 1 46 C-0.051875 46.928125 -0.051875 46.928125 -1.125 47.875 C-7.22100051 52.38073951 -13.62406675 52.83887174 -21 52 C-28.41093777 49.78471198 -33.89510804 46.20546373 -37.75 39.4375 C-41.98763337 31.48523231 -42.69201534 21.57452356 -40.05859375 12.8984375 C-37.77204111 8.15330319 -35.0492094 4.42625411 -31 1 C-30.360625 0.443125 -29.72125 -0.11375 -29.0625 -0.6875 C-19.95333896 -6.48423885 -9.02430188 -5.10465561 0 0 Z M-15.625 13.75 C-16.51058594 14.23726562 -16.51058594 14.23726562 -17.4140625 14.734375 C-19.98840325 16.78877501 -20.84149895 18.96974321 -21.3359375 22.18359375 C-21.40453771 26.14182612 -21.32351778 28.43683942 -19.3125 31.9375 C-15.66140963 35.1938779 -13.41752283 36.05062582 -8.5 35.875 C-3.96384005 34.74096001 -1.36781575 32.95402251 1.3125 29.125 C2.73120666 24.73990667 2.47082662 21.92354453 0.375 17.8125 C-2.24304513 14.7121834 -4.22065354 13.41725492 -8 12 C-11.70904235 12 -12.64232369 12.04185938 -15.625 13.75 Z " fill="#ffffff" transform="translate(380,188)"/>
<path d="M0 0 C5.45001319 4.26522772 9.32856945 10.31427778 11 17 C11 20.3 11 23.6 11 27 C-1.54 27 -14.08 27 -27 27 C-24.65636164 32.82241201 -24.65636164 32.82241201 -21.375 34.9375 C-16.98366148 36.31995842 -13.42708992 36.26723392 -9 35 C-8.113125 34.278125 -7.22625 33.55625 -6.3125 32.8125 C-5.549375 32.214375 -4.78625 31.61625 -4 31 C0.97770086 31.8849246 5.533485 34.66471551 10 37 C8.60702045 42.26236717 5.30771674 44.98024705 1 48 C-7.53911649 52.69560758 -18.2377522 53.5512899 -27.625 51.0625 C-34.70977649 48.31376158 -41.07621981 42.52132473 -44.625 35.8125 C-47.3521077 28.39736429 -47.33968236 19.4121826 -44.4375 12.0625 C-40.24854217 4.15492347 -33.60659811 -0.96615058 -25.109375 -3.58203125 C-16.30305284 -5.32698768 -7.95938984 -4.0527778 0 0 Z M-26 14 C-26 14.66 -26 15.32 -26 16 C-20.06 16 -14.12 16 -8 16 C-9.47639003 10.93991361 -9.47639003 10.93991361 -13 9 C-19.33002905 8.2853193 -21.93470603 8.66430167 -26 14 Z " fill="#ffffff" transform="translate(256,188)"/>
<path d="M0 0 C3.68612664 -0.26319835 7.36982998 -0.42176303 11.0625 -0.5625 C12.10083984 -0.63791016 13.13917969 -0.71332031 14.20898438 -0.79101562 C21.85964001 -1.00960579 21.85964001 -1.00960579 25.30810547 2.04345703 C27.05698591 4.2920176 28.58970608 6.52726194 30 9 C33.57789897 7.80736701 33.66747153 7.10182033 35.4765625 3.96875 C37.39661273 1.30894015 38.33537001 0.17132004 41.54589844 -0.65625 C44.52390419 -0.78674803 47.40107844 -0.69954054 50.375 -0.5 C51.39722656 -0.46390625 52.41945313 -0.4278125 53.47265625 -0.390625 C55.98566323 -0.29668081 58.49086139 -0.16553566 61 0 C59.63170108 2.94701072 58.04458724 5.38736919 56.03125 7.93359375 C55.46019531 8.66513672 54.88914062 9.39667969 54.30078125 10.15039062 C53.10215809 11.67272003 51.9016414 13.19356049 50.69921875 14.71289062 C46.61311012 19.93513382 46.61311012 19.93513382 44 26 C44.68964844 26.81082031 45.37929688 27.62164062 46.08984375 28.45703125 C49.06865514 31.96398936 52.03601488 35.48050794 55 39 C55.46341797 39.54881836 55.92683594 40.09763672 56.40429688 40.66308594 C57.67077665 42.16668197 58.92935414 43.6769236 60.1875 45.1875 C60.92355469 46.06792969 61.65960938 46.94835937 62.41796875 47.85546875 C64 50 64 50 64 52 C44.20709322 53.91472991 44.20709322 53.91472991 39.02734375 50.82226562 C35.80157519 47.72989351 33.80347525 44.08059045 32 40 C31.01 40.33 30.02 40.66 29 41 C28.60425781 41.82628906 28.20851563 42.65257812 27.80078125 43.50390625 C26.04396145 47.11437844 24.5281779 49.99729699 21 52 C13.15334345 53.4896398 4.91078672 52.66512377 -3 52 C0.08997423 47.76829676 3.25807156 43.63712002 6.6484375 39.640625 C7.26074219 38.91746094 7.87304688 38.19429687 8.50390625 37.44921875 C9.76886516 35.96242989 11.03987856 34.4807743 12.31640625 33.00390625 C12.92097656 32.28589844 13.52554687 31.56789062 14.1484375 30.828125 C14.69677246 30.1877832 15.24510742 29.54744141 15.81005859 28.88769531 C17.35550672 26.80794021 17.35550672 26.80794021 17 23 C15.65921188 20.66613676 15.65921188 20.66613676 13.7890625 18.33984375 C13.12132812 17.46392578 12.45359375 16.58800781 11.765625 15.68554688 C11.05921875 14.77869141 10.3528125 13.87183594 9.625 12.9375 C8.24176167 11.13444118 6.85893135 9.33106926 5.4765625 7.52734375 C4.85861816 6.73062256 4.24067383 5.93390137 3.60400391 5.11303711 C2.34324195 3.45217033 1.15665289 1.73497933 0 0 Z " fill="#ffffff" transform="translate(272,186)"/>
<path d="M0 0 C-0.59834725 4.14298667 -2.00664285 7.18194377 -4.0625 10.8125 C-4.61035156 11.78832031 -5.15820312 12.76414063 -5.72265625 13.76953125 C-6.14417969 14.50558594 -6.56570313 15.24164063 -7 16 C-7.556875 15.84144531 -8.11375 15.68289062 -8.6875 15.51953125 C-12.77671286 14.60083985 -16.84268933 14.48811815 -21 15 C-24.09799981 17.19126816 -24.80352112 18.41056336 -26 22 C-26.15109093 24.20959253 -26.24873801 26.42300047 -26.31640625 28.63671875 C-26.35830078 29.93544922 -26.40019531 31.23417969 -26.44335938 32.57226562 C-26.48316987 33.94400761 -26.52288216 35.31575244 -26.5625 36.6875 C-26.60570835 38.07097645 -26.64932339 39.45444027 -26.69335938 40.83789062 C-26.79957965 44.22513714 -26.90030688 47.61255509 -27 51 C-33.27 51 -39.54 51 -46 51 C-46 33.84 -46 16.68 -46 -1 C-39.73 -1 -33.46 -1 -27 -1 C-26.67 0.32 -26.34 1.64 -26 3 C-25.54109375 2.65066406 -25.0821875 2.30132812 -24.609375 1.94140625 C-23.99578125 1.48636719 -23.3821875 1.03132812 -22.75 0.5625 C-22.14671875 0.11003906 -21.5434375 -0.34242188 -20.921875 -0.80859375 C-14.1327382 -5.0173066 -6.66745335 -3.33372668 0 0 Z " fill="#ffffff" transform="translate(458,187)"/>
<path d="M0 0 C3.24268686 2.64534981 4.80645745 4.58068793 5.375 8.75 C4.85727342 13.23696374 3.30351741 14.97763301 0 18 C-4.01954111 19.22021784 -5.98762587 19.47244126 -9.8125 17.6875 C-13.92255741 14.51688429 -13.92255741 14.51688429 -14.3359375 11.7578125 C-14.4417719 4.62457406 -14.4417719 4.62457406 -12.1875 1.4375 C-7.89511895 -1.38320755 -4.90485165 -1.11865038 0 0 Z " fill="#00FC19" transform="translate(50,191)"/>
</svg>
